<svg xmlns="http://www.w3.org/2000/svg" width="24.354" height="24.354" viewBox="0 0 24.354 24.354">
  <g id="crossIcon" transform="translate(-1789.175 -262.938)">
    <g id="Path_16" data-name="Path 16" transform="translate(1792.488 262.904) rotate(45)" fill="#d77cd7">
      <path d="M 27.62579154968262 4.208283424377441 L 27.60676193237305 4.208183765411377 L 2.257642030715942 3.932523488998413 C 1.311962008476257 3.922233581542969 0.534231960773468 3.144503593444824 0.5239419937133789 2.198823690414429 C 0.5190519690513611 1.749053597450256 0.6880719661712646 1.32775354385376 0.9998719692230225 1.012543559074402 C 1.311612010002136 0.6973935961723328 1.73065197467804 0.5238435864448547 2.179791927337646 0.5238435864448547 L 2.198822021484375 0.5239436030387878 L 27.54794120788574 0.7996035814285278 C 28.49362182617188 0.8098936080932617 29.27135276794434 1.587623596191406 29.28164291381836 2.533303499221802 C 29.28653144836426 2.983073711395264 29.11751174926758 3.404373645782471 28.80571174621582 3.719583511352539 C 28.49397277832031 4.034733772277832 28.07493209838867 4.208283424377441 27.62579154968262 4.208283424377441 Z" stroke="none"/>
      <path d="M 2.179792404174805 1.02384352684021 C 1.865232467651367 1.02384352684021 1.572431564331055 1.14470362663269 1.355342864990234 1.364173650741577 C 1.138191223144531 1.583703517913818 1.020481109619141 1.878193616867065 1.02391242980957 2.193383693695068 C 1.031261444091797 2.869313716888428 1.587152481079102 3.425203561782837 2.263071060180664 3.432553768157959 L 27.61234283447266 3.708213567733765 L 27.62579154968262 3.708283424377441 C 27.94035148620605 3.708283424377441 28.23315238952637 3.58742356300354 28.45024108886719 3.367953538894653 C 28.66739273071289 3.148423671722412 28.78510284423828 2.853933572769165 28.78167152404785 2.538743495941162 C 28.77432250976562 1.862813711166382 28.21843147277832 1.306923627853394 27.54251098632812 1.299573659896851 L 2.193241119384766 1.023913621902466 L 2.179792404174805 1.02384352684021 M 2.17979621887207 0.02384042739868164 C 2.187948226928711 0.02384042739868164 2.196088790893555 0.02388477325439453 2.204261779785156 0.02397346496582031 L 27.55338287353516 0.2996335029602051 C 28.77076148986816 0.312873363494873 29.76837158203125 1.31049370765686 29.78161239624023 2.527863502502441 C 29.79476356506348 3.737070322036743 28.83174324035645 4.708286762237549 27.62578773498535 4.708286762237549 C 27.61763572692871 4.708286762237549 27.60949516296387 4.708242416381836 27.60132217407227 4.70815372467041 L 2.252201080322266 4.432493686676025 C 1.034822463989258 4.419253349304199 0.03721237182617188 3.421633720397949 0.0239715576171875 2.204263687133789 C 0.01082038879394531 0.9950568675994873 0.9738407135009766 0.02384042739868164 2.17979621887207 0.02384042739868164 Z" stroke="none" fill="#d77cd7"/>
    </g>
    <g id="Path_17" data-name="Path 17" transform="translate(1813.301 266.056) rotate(135)" fill="#d77cd7">
      <path d="M 2.131887435913086 3.884727716445923 C 1.682687401771545 3.884727716445923 1.263627409934998 3.711177587509155 0.9519074559211731 3.396047592163086 C 0.6401174664497375 3.080857515335083 0.4711074531078339 2.659537553787231 0.4759974479675293 2.209717512130737 C 0.4862874448299408 1.26402759552002 1.26402747631073 0.4862875938415527 2.209717512130737 0.4759975969791412 L 27.55881690979004 0.2003376036882401 L 27.57784652709961 0.2002376019954681 C 28.02703666687012 0.2002376019954681 28.44608688354492 0.3737775981426239 28.7578067779541 0.6889076232910156 C 29.0695972442627 1.004107594490051 29.23860740661621 1.42541766166687 29.23371696472168 1.875237584114075 C 29.22342681884766 2.820927619934082 28.44568824768066 3.598667621612549 27.49999809265137 3.608957529067993 L 2.15089750289917 3.8846275806427 L 2.131887435913086 3.884727716445923 Z" stroke="none"/>
      <path d="M 27.57784652709961 0.7002377510070801 L 27.56424713134766 0.7003078460693359 L 2.215156555175781 0.9759678840637207 C 1.539216995239258 0.9833178520202637 0.9833183288574219 1.539217948913574 0.9759674072265625 2.215147972106934 C 0.9725379943847656 2.530407905578613 1.090236663818359 2.824907779693604 1.307376861572266 3.044427871704102 C 1.524448394775391 3.263867855072021 1.817256927490234 3.38471794128418 2.131868362426758 3.38471794128418 L 2.145467758178711 3.384647846221924 L 27.49455642700195 3.108987808227539 C 28.17049789428711 3.101637840270996 28.72639656066895 2.545737743377686 28.7337474822998 1.869807958602905 C 28.7371768951416 1.554547786712646 28.61947822570801 1.260047912597656 28.4023380279541 1.040527820587158 C 28.18526840209961 0.8210878372192383 27.89245796203613 0.7002377510070801 27.57784652709961 0.7002377510070801 M 27.57784271240234 -0.2997651100158691 C 28.78391265869141 -0.2997651100158691 29.74683952331543 0.6713769435882568 29.73368835449219 1.880677938461304 C 29.7204475402832 3.098067760467529 28.72282791137695 4.095687866210938 27.50543785095215 4.108927726745605 L 2.156337738037109 4.38458776473999 C 2.148239135742188 4.384675979614258 2.139949798583984 4.384720802307129 2.131872177124023 4.384720802307129 C 0.9258022308349609 4.384720802307129 -0.0371246337890625 3.413578748703003 -0.02397346496582031 2.204277992248535 C -0.01073265075683594 0.9868879318237305 0.9868869781494141 -0.01073217391967773 2.204277038574219 -0.0239720344543457 L 27.55337715148926 -0.2996320724487305 C 27.56147575378418 -0.299720287322998 27.56976509094238 -0.2997651100158691 27.57784271240234 -0.2997651100158691 Z" stroke="none" fill="#d77cd7"/>
    </g>
  </g>
</svg>
