<svg xmlns="http://www.w3.org/2000/svg" width="26" height="25" viewBox="0 0 26 25">
  <g id="passwordEyeBlock" transform="translate(-1 -1.441)">
    <path id="Path_8" data-name="Path 8" d="M22.693,1.55a.794.794,0,0,0-1.093.3l-2.447,4.3a12.05,12.05,0,0,0-5.139-1.179c-4.693,0-9.233,2.882-12.894,8.3l-.015.021-.013.018a.459.459,0,0,0,0,.553c2.7,4.013,5.885,6.641,9.256,7.746L8.4,25.022a.817.817,0,0,0,.293,1.108l.346.2a.794.794,0,0,0,1.093-.3l13.2-23.175a.817.817,0,0,0-.293-1.108Zm-4.6,6.457a10.072,10.072,0,0,0-4.078-.888c-3.41,0-6.94,1.855-10.075,5.805a1.065,1.065,0,0,0,0,1.312,14.9,14.9,0,0,0,7.5,5.454l1.347-2.366a3.92,3.92,0,0,1-2.812-3.741,4.2,4.2,0,0,1,4.073-4.308,3.935,3.935,0,0,1,2.705,1.088Zm-2.453,4.307a1.876,1.876,0,0,0-1.593-.886A2.1,2.1,0,0,0,12,13.58a2.048,2.048,0,0,0,1.9,1.782Z" fill="#bbadbe" fill-rule="evenodd"/>
    <path id="Path_9" data-name="Path 9" d="M14.687,22.176c4.444-.261,8.718-3.107,12.2-8.245A.6.6,0,0,0,27,13.58a.571.571,0,0,0-.1-.334,23.455,23.455,0,0,0-4.33-4.9l-1.059,1.86a19.883,19.883,0,0,1,2.583,2.719,1.065,1.065,0,0,1,0,1.312c-2.522,3.178-5.3,5-8.064,5.592Z" fill="#bbadbe"/>
  </g>
</svg>
