<svg xmlns="http://www.w3.org/2000/svg" width="26" height="17" viewBox="0 0 26 17">
  <g id="passwordEye" transform="translate(-1 -5.5)">
    <path id="Path_6" data-name="Path 6" d="M17.747,15.415A4.305,4.305,0,0,0,18.119,14a4.165,4.165,0,0,0-4.073-4.25A4.165,4.165,0,0,0,9.973,14a4.04,4.04,0,0,0,7.278,2.258A4.29,4.29,0,0,0,17.747,15.415Zm-3.7.349a1.982,1.982,0,0,0,1.332-.518A1.933,1.933,0,0,0,16,14a2.015,2.015,0,0,0-1.954-2.125A2.088,2.088,0,0,0,12,14,2.045,2.045,0,0,0,14.046,15.764Z" fill="#bbadbe" fill-rule="evenodd"/>
    <path id="Path_7" data-name="Path 7" d="M1.092,14.272c-.016-.02.016.021,0,0a.448.448,0,0,1,0-.545l.027-.039C4.781,8.343,9.321,5.5,14.014,5.5S23.239,8.336,26.9,13.67A.558.558,0,0,1,27,14a.591.591,0,0,1-.114.347C23.23,19.67,18.7,22.5,14.014,22.5,9.309,22.5,4.757,19.643,1.092,14.272Zm2.847-.92a1.04,1.04,0,0,0,0,1.294c3.135,3.9,6.665,5.728,10.075,5.728s6.94-1.831,10.075-5.728a1.04,1.04,0,0,0,0-1.294c-3.135-3.9-6.665-5.727-10.075-5.727S7.074,9.455,3.939,13.352Z" fill="#bbadbe" fill-rule="evenodd"/>
  </g>
</svg>
