<svg xmlns="http://www.w3.org/2000/svg" width="14.398" height="13.045" viewBox="0 0 14.398 13.045">
  <g id="penIcon" transform="translate(4.221 -2.574) rotate(19)">
    <g id="Rectangle_34" data-name="Rectangle 34" transform="translate(7.907 0) rotate(25)" fill="#fff" stroke="#d97cd9" stroke-width="1">
      <rect width="3.755" height="13.453" stroke="none"/>
      <rect x="0.5" y="0.5" width="2.755" height="12.453" fill="none"/>
    </g>
    <g id="Polygon_1" data-name="Polygon 1" transform="translate(0 12.964) rotate(-30)" fill="#fff">
      <path d="M 3.771452665328979 2.924914360046387 L 2.19790244102478 2.924914360046387 C 1.899272561073303 2.924914360046387 1.774052500724792 2.70069432258606 1.74279248714447 2.631974220275879 C 1.711522579193115 2.5632643699646 1.624762535095215 2.321554183959961 1.820952534675598 2.096424341201782 L 2.607722520828247 1.193584322929382 C 2.704102516174316 1.082994222640991 2.837972640991211 1.022094249725342 2.984672546386719 1.022094249725342 C 3.131372451782227 1.022094249725342 3.265242576599121 1.082994222640991 3.36162257194519 1.193594217300415 L 4.148392677307129 2.09641432762146 C 4.344582557678223 2.321554183959961 4.257822513580322 2.5632643699646 4.226552486419678 2.631984233856201 C 4.195292472839355 2.700704336166382 4.070072650909424 2.924914360046387 3.771452665328979 2.924914360046387 Z" stroke="none"/>
      <path d="M 2.984672784805298 1.52208423614502 L 2.197902679443359 2.424912929534912 C 2.197902917861938 2.42491340637207 2.197903156280518 2.424913883209229 2.197902679443359 2.424914360046387 L 3.771442890167236 2.424914360046387 L 2.986132860183716 1.522224187850952 C 2.985982894897461 1.522184371948242 2.985442876815796 1.52208423614502 2.984672784805298 1.52208423614502 M 2.984672784805298 0.5220892429351807 C 3.261982679367065 0.5220892429351807 3.539292812347412 0.6364243030548096 3.738572835922241 0.8650941848754883 L 4.52534294128418 1.767924308776855 C 5.08918285369873 2.414924144744873 4.62966251373291 3.424914360046387 3.771452903747559 3.424914360046387 L 2.197902679443359 3.424914360046387 C 1.339682579040527 3.424914360046387 0.8801627159118652 2.414924144744873 1.444002628326416 1.767924308776855 L 2.230772733688354 0.8650941848754883 C 2.430052757263184 0.6364243030548096 2.70736289024353 0.5220892429351807 2.984672784805298 0.5220892429351807 Z" stroke="none" fill="#d97cd9"/>
    </g>
  </g>
</svg>
