<svg xmlns="http://www.w3.org/2000/svg" width="75.869" height="75.869" viewBox="0 0 75.869 75.869">
  <g id="questionIcon" transform="translate(-7.2 -10.2)">
    <g id="Icon-Question" transform="translate(7.2 10.2)">
      <path id="Fill-47" d="M-131.866-193.931A37.934,37.934,0,0,1-169.8-231.866,37.934,37.934,0,0,1-131.866-269.8a37.934,37.934,0,0,1,37.934,37.934,37.934,37.934,0,0,1-37.934,37.934Zm0-71.742a33.938,33.938,0,0,0-33.808,33.808,33.938,33.938,0,0,0,33.808,33.808,33.938,33.938,0,0,0,33.808-33.808,33.835,33.835,0,0,0-33.808-33.808Z" transform="translate(169.8 269.8)" fill="#aa5cb2"/>
      <path id="Fill-48" d="M-153.044-250.564a11.394,11.394,0,0,1,2.54-4.286,12.414,12.414,0,0,1,4.127-2.7,15.093,15.093,0,0,1,5.555-.952,14.747,14.747,0,0,1,4.6.794,14.612,14.612,0,0,1,3.809,2.063,8.894,8.894,0,0,1,2.54,3.333,10.36,10.36,0,0,1,.952,4.6,10.329,10.329,0,0,1-1.428,5.555A23.6,23.6,0,0,1-134-237.708l-2.857,2.857a6.015,6.015,0,0,0-1.587,2.063,5.258,5.258,0,0,0-.635,2.381,18.358,18.358,0,0,0-.159,3.333h-3.651a11.943,11.943,0,0,1,.317-3.651,11.777,11.777,0,0,1,1.111-3.333,16.112,16.112,0,0,1,2.063-2.857c.952-.952,1.9-1.9,3.174-3.016a10.864,10.864,0,0,0,2.7-3.333,7.689,7.689,0,0,0,1.111-4.127,7.107,7.107,0,0,0-.635-3.174,14.382,14.382,0,0,0-1.746-2.54,5.126,5.126,0,0,0-2.7-1.587,10.261,10.261,0,0,0-3.174-.635,10.617,10.617,0,0,0-4.127.794,7.147,7.147,0,0,0-3.016,2.222,8.4,8.4,0,0,0-1.746,3.333,10.07,10.07,0,0,0-.476,3.809h-3.651a11.79,11.79,0,0,1,.635-5.4Zm9.523,27.776h4.444v4.444h-4.444Z" transform="translate(179.233 276.435)" fill="#aa5cb2"/>
    </g>
  </g>
</svg>
