<svg xmlns="http://www.w3.org/2000/svg" width="24" height="24" viewBox="0 0 24 24">
  <g id="UserIcon" transform="translate(-530.032 -310)">
    <g id="Group_2" data-name="Group 2" transform="translate(530.032 310)">
      <g id="Ellipse_1" data-name="Ellipse 1" transform="translate(5.664)" fill="#fff" stroke="#d97cd9" stroke-width="3">
        <ellipse cx="6.199" cy="6.197" rx="6.199" ry="6.197" stroke="none"/>
        <ellipse cx="6.199" cy="6.197" rx="4.699" ry="4.697" fill="none"/>
      </g>
      <g id="Subtraction_1" data-name="Subtraction 1" transform="translate(0 12.639)" fill="#fff">
        <path d="M 22.3297004699707 9.861015319824219 L 1.670285701751709 9.861015319824219 C 1.821382522583008 9.066653251647949 2.06889796257019 8.294253349304199 2.410921335220337 7.55188512802124 C 2.681551456451416 6.964495182037354 3.011661529541016 6.398515224456787 3.392061471939087 5.86969518661499 C 3.769961357116699 5.344345092773438 4.201001644134521 4.85074520111084 4.673181533813477 4.402595043182373 C 5.146241188049316 3.953605175018311 5.664811611175537 3.546265363693237 6.214491367340088 3.191875219345093 C 6.769861221313477 2.833825349807739 7.362231254577637 2.526465177536011 7.975161552429199 2.278335332870483 C 9.250921249389648 1.76187527179718 10.60507106781006 1.50000524520874 11.99999141693115 1.50000524520874 C 13.39495182037354 1.50000524520874 14.74913120269775 1.76187527179718 16.02491188049316 2.278335332870483 C 16.63787078857422 2.526475191116333 17.23023223876953 2.833835363388062 17.78555107116699 3.191865205764771 C 18.33524131774902 3.546265363693237 18.85381126403809 3.953605175018311 19.32686233520508 4.402585506439209 C 19.79905128479004 4.850735187530518 20.23008155822754 5.344345092773438 20.60798072814941 5.86969518661499 C 20.98838233947754 6.398525238037109 21.31847190856934 6.964495182037354 21.58908081054688 7.551875114440918 C 21.93107414245605 8.29417610168457 22.17860221862793 9.066675186157227 22.3297004699707 9.861015319824219 Z" stroke="none"/>
        <path d="M 20.30780601501465 8.361015319824219 C 20.28152084350586 8.300318717956543 20.25446319580078 8.23975944519043 20.22671127319336 8.179525375366211 C 19.99618148803711 7.679135322570801 19.71476173400879 7.196695327758789 19.39030075073242 6.745615482330322 C 19.06717109680176 6.29640531539917 18.69841194152832 5.874155044555664 18.29424095153809 5.490565299987793 C 17.88876152038574 5.105715274810791 17.44415092468262 4.756485462188721 16.97274208068848 4.452555179595947 C 16.49629211425781 4.14537525177002 15.98802185058594 3.881655216217041 15.46205139160156 3.668725252151489 C 14.36593151092529 3.224995374679565 13.20112133026123 3.00000524520874 11.99999141693115 3.00000524520874 C 10.79889106750488 3.00000524520874 9.634120941162109 3.224995374679565 8.538021087646484 3.668725252151489 C 8.01207160949707 3.881645202636719 7.503791332244873 4.145365238189697 7.027281284332275 4.452585220336914 C 6.555901527404785 4.756485462188721 6.111291408538818 5.105715274810791 5.70578145980835 5.490585327148438 C 5.301641464233398 5.874165058135986 4.932871341705322 6.296415328979492 4.6097412109375 6.745625495910645 C 4.285271644592285 7.196695327758789 4.003841400146484 7.679155349731445 3.773291349411011 8.17955493927002 C 3.745537281036377 8.239794731140137 3.718495607376099 8.300313949584961 3.692207336425781 8.361015319824219 L 20.30780601501465 8.361015319824219 M 23.99998092651367 11.36101531982422 L 23.99978065490723 11.36101531982422 L 23.99998092651367 11.36101531982422 Z M 23.99998092651367 11.36101531982422 L 1.416931127096177e-06 11.36101531982422 C 0.05078141763806343 9.816715240478516 0.403641402721405 8.32402515411377 1.048561453819275 6.924215316772461 C 1.35927140712738 6.24983549118042 1.738051414489746 5.600335121154785 2.174371480941772 4.993775367736816 C 2.607041358947754 4.392295360565186 3.100341320037842 3.827335357666016 3.640571355819702 3.314605236053467 C 4.181191444396973 2.801495313644409 4.773731231689453 2.336035251617432 5.4017014503479 1.931175231933594 C 6.035901546478271 1.522295236587524 6.712361335754395 1.171295285224915 7.412291526794434 0.887945294380188 C 8.867731094360352 0.2987452745437622 10.41125106811523 5.275726380205015e-06 11.99999141693115 5.275726380205015e-06 C 13.58876132965088 5.275726380205015e-06 15.13231182098389 0.2987452745437622 16.58777236938477 0.887945294380188 C 17.28770065307617 1.171295285224915 17.96416091918945 1.522285223007202 18.59836196899414 1.931175231933594 C 19.22631072998047 2.336025238037109 19.8188419342041 2.801475286483765 20.35948181152344 3.314605236053467 C 20.89973068237305 3.82735538482666 21.39302062988281 4.39231538772583 21.8256721496582 4.993775367736816 C 22.26200103759766 5.600365161895752 22.64077186584473 6.249865055084229 22.95145225524902 6.924215316772461 C 23.59639167785645 8.324085235595703 23.94916152954102 9.816775321960449 23.99998092651367 11.36081504821777 L 23.99998092651367 11.36101531982422 Z" stroke="none" fill="#d97cd9"/>
      </g>
    </g>
  </g>
</svg>
