<svg id="UserIcon" xmlns="http://www.w3.org/2000/svg" width="21" height="21" viewBox="0 0 21 21">
  <g id="Group_2" data-name="Group 2">
    <g id="Ellipse_1" data-name="Ellipse 1" transform="translate(4.956)" fill="#fff" stroke="#bbadbe" stroke-width="3">
      <ellipse cx="5.424" cy="5.422" rx="5.424" ry="5.422" stroke="none"/>
      <ellipse cx="5.424" cy="5.422" rx="3.924" ry="3.922" fill="none"/>
    </g>
    <g id="Subtraction_1" data-name="Subtraction 1" transform="translate(0 11.059)" fill="#fff">
      <path d="M 19.30884742736816 8.440882682800293 L 1.691138625144958 8.440882682800293 C 1.822431325912476 7.838905811309814 2.019060134887695 7.2524094581604 2.279852390289307 6.686362266540527 C 2.511642456054688 6.183262348175049 2.794402360916138 5.698472499847412 3.120262384414673 5.245472431182861 C 3.444062471389771 4.795332431793213 3.813432455062866 4.372352123260498 4.218112468719482 3.988272190093994 C 4.623552322387695 3.603452205657959 5.068062305450439 3.254282236099243 5.539302349090576 2.950462341308594 C 6.01536226272583 2.643532276153564 6.523172378540039 2.380052328109741 7.048612594604492 2.167342185974121 C 8.142462730407715 1.724522352218628 9.303662300109863 1.500002264976501 10.49999237060547 1.500002264976501 C 11.69635200500488 1.500002264976501 12.85758209228516 1.724532246589661 13.95143222808838 2.167342185974121 C 14.476881980896 2.380052328109741 14.98469257354736 2.643532276153564 15.46076202392578 2.950472354888916 C 15.93194198608398 3.254252195358276 16.37644195556641 3.603412389755249 16.78192329406738 3.988262176513672 C 17.18659210205078 4.372322082519531 17.55595207214355 4.795302391052246 17.8797721862793 5.245472431182861 C 18.20562171936035 5.698472499847412 18.48837280273438 6.183262348175049 18.72015190124512 6.686352252960205 C 18.98094749450684 7.252419948577881 19.17755699157715 7.838853359222412 19.30884742736816 8.440882682800293 Z" stroke="none"/>
      <path d="M 17.17241859436035 6.940882205963135 C 17.02122688293457 6.657590389251709 16.85037422180176 6.383155822753906 16.6620922088623 6.121392250061035 C 16.39304161071777 5.747372150421143 16.08595275878906 5.395742416381836 15.74930191040039 5.076242446899414 C 15.41139221191406 4.75552225112915 15.04084205627441 4.464462280273438 14.64796257019043 4.211162090301514 C 14.25076198577881 3.955082178115845 13.82704257965088 3.735232353210449 13.38857269287109 3.557732343673706 C 12.4743824005127 3.187652349472046 11.50252246856689 3.000002384185791 10.49999237060547 3.000002384185791 C 9.497492790222168 3.000002384185791 8.525662422180176 3.187652349472046 7.611472606658936 3.557742357254028 C 7.173012256622314 3.735232353210449 6.749292373657227 3.955082178115845 6.352102279663086 4.211152076721191 C 5.95916223526001 4.464502334594727 5.588622570037842 4.755552291870117 5.250722408294678 5.076252460479736 C 4.914082527160645 5.39576244354248 4.606972217559814 5.747412204742432 4.337942600250244 6.121402263641357 C 4.149647235870361 6.383165836334229 3.978796482086182 6.657587051391602 3.827600717544556 6.940882205963135 L 17.17241859436035 6.940882205963135 M 20.9999828338623 9.940882682800293 L 20.99980163574219 9.940882682800293 L 20.9999828338623 9.940882682800293 Z M 20.9999828338623 9.940882682800293 L 2.370605443502427e-06 9.940882682800293 C 0.0444323718547821 8.589622497558594 0.3531823754310608 7.283522129058838 0.9174923896789551 6.058692455291748 C 1.189362406730652 5.468602180480957 1.520792365074158 4.90029239654541 1.902572393417358 4.369552135467529 C 2.281162261962891 3.843252182006836 2.712802410125732 3.348922252655029 3.185502290725708 2.900282382965088 C 3.658542394638062 2.451302289962769 4.177022457122803 2.044032335281372 4.726492404937744 1.689772248268127 C 5.281412601470947 1.332002282142639 5.873312473297119 1.024882316589355 6.485762596130371 0.7769522666931152 C 7.759262561798096 0.2614023089408875 9.109842300415039 2.295074409630615e-06 10.49999237060547 2.295074409630615e-06 C 11.89017200469971 2.295074409630615e-06 13.24077224731445 0.2614023089408875 14.51429271697998 0.7769522666931152 C 15.12674236297607 1.024882316589355 15.71864223480225 1.332002282142639 16.27356147766113 1.689772248268127 C 16.82302284240723 2.04402232170105 17.34148216247559 2.451292276382446 17.81454277038574 2.900282382965088 C 18.28726196289062 3.348932266235352 18.71889305114746 3.84327220916748 19.09746170043945 4.369552135467529 C 19.47925186157227 4.900322437286377 19.81067276000977 5.468632221221924 20.08252143859863 6.058692455291748 C 20.64684295654297 7.283572196960449 20.95552253723145 8.589682579040527 20.9999828338623 9.940711975097656 L 20.9999828338623 9.940882682800293 Z" stroke="none" fill="#bbadbe"/>
    </g>
  </g>
</svg>
